<svg width="146" height="146" viewBox="0 0 146 146" fill="none" xmlns="http://www.w3.org/2000/svg">
<path d="M141 98.4608L141 5.00001L93.5473 52.7002C110.873 35.283 140.612 47.4232 140.799 71.9894L141 98.4608Z" fill="#2F2F2F"/>
<path d="M141 5.00001L47.5392 5.00001L73.8565 5.09527C98.6437 5.18499 111.029 35.1271 93.5473 52.7002L141 5.00001Z" fill="#2F2F2F"/>
<path d="M5 141L93.5473 52.7002M141 5.00001L141 98.4608M141 5.00001L93.5473 52.7002M141 5.00001L47.5392 5.00001M16.3857 5L47.5392 5.00001M141 129.614V98.4608M47.5392 5.00001L73.8565 5.09527C98.6437 5.18499 111.029 35.1271 93.5473 52.7002M141 98.4608L140.799 71.9894C140.612 47.4232 110.873 35.283 93.5473 52.7002" stroke="#2F2F2F" stroke-width="10" stroke-linecap="round" stroke-linejoin="round"/>
</svg>
