<svg width="147" height="147" viewBox="0 0 147 147" fill="none" xmlns="http://www.w3.org/2000/svg">
<path d="M141.142 99.3186L141.142 5.85786L93.6896 53.5581C111.015 36.1408 140.754 48.281 140.941 72.8472L141.142 99.3186Z" fill="white"/>
<path d="M141.142 5.85786L47.6815 5.85786L73.9988 5.95312C98.786 6.04284 111.171 35.985 93.6896 53.5581L141.142 5.85786Z" fill="white"/>
<path d="M5.1423 141.858L93.6896 53.5581M141.142 5.85786L141.142 99.3186M141.142 5.85786L93.6896 53.5581M141.142 5.85786L47.6815 5.85786M16.528 5.85785L47.6815 5.85786M141.142 130.472V99.3186M47.6815 5.85786L73.9988 5.95312C98.786 6.04284 111.171 35.985 93.6896 53.5581M141.142 99.3186L140.941 72.8472C140.754 48.281 111.015 36.1408 93.6896 53.5581" stroke="white" stroke-width="10" stroke-linecap="round" stroke-linejoin="round"/>
</svg>
