<svg width="488" height="404" viewBox="0 0 488 404" fill="none" xmlns="http://www.w3.org/2000/svg">
<path d="M271.087 404.326V289.754C271.087 288.051 271.087 286.338 271.098 284.615C275.611 234.866 364.192 245.849 353.124 201.935C342.057 174.486 275.621 174.486 271.087 131.454C271.087 129.7 271.087 127.945 271.087 126.211V1.30957H410.44V126.211C410.44 127.955 410.44 129.7 410.44 131.454C419.56 174.496 474.918 174.496 485.985 201.935C497.053 245.849 414.011 234.866 410.44 284.615C410.43 286.338 410.43 288.051 410.43 289.754V404.326H271.077H271.087Z" fill="url(#paint0_linear_1896_6493)" stroke="#2F2F2F" stroke-miterlimit="10"/>
<path d="M1 404.326V289.754C1 288.051 1 286.338 1.01047 284.615C7.41845 229.384 95.9994 245.85 84.9215 201.935C73.8542 174.496 7.41845 174.496 1 131.454C1 129.7 1 127.945 1 126.211V1.30957H140.353V126.211C140.353 127.955 140.353 129.7 140.353 131.454C145.818 179.978 223.332 174.496 223.332 207.427C228.871 240.358 151.357 234.876 140.363 284.615C140.353 286.338 140.353 288.051 140.353 289.754V404.326H1Z" fill="url(#paint1_linear_1896_6493)" stroke="#2F2F2F" stroke-miterlimit="10"/>
<defs>
<linearGradient id="paint0_linear_1896_6493" x1="379.038" y1="1.30957" x2="379.038" y2="404.326" gradientUnits="userSpaceOnUse">
<stop offset="0.45"/>
<stop offset="1" stop-color="#2F2F2F"/>
</linearGradient>
<linearGradient id="paint1_linear_1896_6493" x1="112.307" y1="1.30957" x2="112.307" y2="404.326" gradientUnits="userSpaceOnUse">
<stop offset="0.45"/>
<stop offset="1" stop-color="#2F2F2F"/>
</linearGradient>
</defs>
</svg>
