<?xml version="1.0" encoding="UTF-8"?>
<svg width="1200pt" height="1200pt" version="1.1" viewBox="0 0 1200 1200" xmlns="http://www.w3.org/2000/svg">
 <path d="m346.88 1087.5h-234.38v-234.38c-0.097656-6.6328-3.6953-12.719-9.4531-16.008-5.7617-3.2891-12.832-3.2891-18.594 0-5.7617 3.2891-9.3555 9.375-9.4531 16.008v253.12c0 4.9727 1.9727 9.7422 5.4922 13.258 3.5156 3.5195 8.2852 5.4922 13.258 5.4922h253.12c6.6133-0.12891 12.668-3.7305 15.938-9.4805 3.2695-5.7461 3.2695-12.793 0-18.539-3.2695-5.75-9.3242-9.3516-15.938-9.4805z"/>
 <path d="m1106.2 75h-253.12c-6.6133 0.12891-12.668 3.7305-15.938 9.4805-3.2656 5.7461-3.2656 12.793 0.003906 18.543 3.2695 5.7461 9.3242 9.3477 15.934 9.4766h234.38v234.38c0 6.6992 3.5742 12.887 9.375 16.238 5.8008 3.3477 12.949 3.3477 18.75 0 5.8008-3.3516 9.375-9.5391 9.375-16.238v-253.12c0-4.9727-1.9727-9.7422-5.4922-13.258-3.5156-3.5195-8.2852-5.4922-13.258-5.4922z"/>
 <path d="m93.75 365.62c4.9727 0 9.7422-1.9727 13.258-5.4922 3.5195-3.5156 5.4922-8.2852 5.4922-13.258v-234.38h234.38c6.6992 0 12.887-3.5742 16.238-9.375 3.3477-5.8008 3.3477-12.949 0-18.75-3.3516-5.8008-9.5391-9.375-16.238-9.375h-253.12c-4.9727 0-9.7422 1.9727-13.258 5.4922-3.5195 3.5156-5.4922 8.2852-5.4922 13.258v253.12c0 4.9727 1.9727 9.7422 5.4922 13.258 3.5156 3.5195 8.2852 5.4922 13.258 5.4922z"/>
 <path d="m1106.2 834.38c-4.9727 0-9.7422 1.9727-13.258 5.4922-3.5195 3.5156-5.4922 8.2852-5.4922 13.258v234.38h-234.38c-6.6992 0-12.887 3.5742-16.238 9.375-3.3477 5.8008-3.3477 12.949 0 18.75 3.3516 5.8008 9.5391 9.375 16.238 9.375h253.12c4.9727 0 9.7422-1.9727 13.258-5.4922 3.5195-3.5156 5.4922-8.2852 5.4922-13.258v-253.12c0-4.9727-1.9727-9.7422-5.4922-13.258-3.5156-3.5195-8.2852-5.4922-13.258-5.4922z"/>
 <path d="m329.99 753.84c-15.578 31.09-24.535 65.074-26.309 99.805 0.45703 4.8789 3.082 9.2891 7.1562 12.016 5.5977 5.6523 19.891 3.6719 27.191 3.9961 2.7695 1.3242 5.7773 2.0781 8.8438 2.2148h506.25c2.9375-0.054688 5.8203-0.8125 8.4023-2.2148 8.3633-0.19141 23.93 1.9375 30.387-6.2852 3.332-4.0156 5.0625-9.1172 4.8633-14.332-6.5-58.988-30.359-114.72-68.551-160.14-38.191-45.418-89-78.484-146-95.012 115.29-78.336 59.246-264.08-82.234-263.73-141.51-0.14453-197.56 185.15-82.227 263.73v-0.003906c-40.902 11.723-78.82 32.059-111.21 59.648-32.387 27.59-58.496 61.789-76.57 100.3zm162.76-278.93c4.5-141.74 210.01-141.71 214.49 0.003906-4.4961 141.74-210.01 141.71-214.49-0.003906zm107.25 144.79c49.602 0.058594 98.156 14.242 139.99 40.887 41.836 26.645 75.223 64.648 96.25 109.57 9.4844 19.672 16.293 40.523 20.25 62h-512.98c4.1914-21.512 11.031-42.418 20.359-62.246 21.051-44.867 54.43-82.812 96.242-109.41 41.816-26.598 90.336-40.746 139.89-40.797z"/>
</svg>
